<svg width="152" height="27" viewBox="0 0 152 27" fill="none" xmlns="http://www.w3.org/2000/svg">
<path d="M138.868 0C131.185 0 125.625 5.63381 125.625 13.3831C125.625 21.1101 131.185 26.7217 138.868 26.7217C146.484 26.7217 152 21.1101 152 13.3831C152 5.63381 146.484 0 138.868 0ZM147.667 13.3831C147.667 16.0107 146.752 18.4157 145.121 20.108C143.513 21.7781 141.302 22.6911 138.89 22.6911C133.731 22.6911 130.002 18.772 130.002 13.3608C130.002 7.92742 133.731 4.00825 138.89 4.00825C143.96 4.00825 147.667 7.94969 147.667 13.3831Z" fill="#F18815"/>
<path d="M120.131 19.0837C118.232 21.4664 115.843 22.6689 113.029 22.6689C107.78 22.6689 104.252 18.9724 104.252 13.4499C104.252 7.83835 107.758 4.05278 113.006 4.05278C115.798 4.05278 118.165 5.25526 120.108 7.63794L120.466 8.0833L123.637 5.45567L123.28 5.03258C120.644 1.78144 116.982 0 113.006 0C105.167 0 99.9189 5.41114 99.9189 13.4499C99.9189 17.4804 101.259 20.8874 103.827 23.2701C106.172 25.4746 109.455 26.6771 113.051 26.6771C117.16 26.6771 120.711 24.9625 123.324 21.7336L123.659 21.3105L120.488 18.6384L120.131 19.0837Z" fill="#F18815"/>
<path d="M86.6977 26.1651C85.1567 26.1651 83.906 25.7197 82.9457 24.8067C81.9854 23.8937 81.5164 22.6912 81.5164 21.2215C81.5164 19.9745 81.8737 18.9279 82.5884 18.0818C83.303 17.2356 84.3303 16.4562 85.6703 15.6991C84.911 14.7638 84.375 13.9844 84.0847 13.4055C83.772 12.8042 83.6157 12.1807 83.6157 11.4904C83.6157 10.2879 84.0177 9.35268 84.844 8.6401C85.6703 7.92753 86.6977 7.59351 87.926 7.59351C89.1543 7.59351 90.1593 7.97206 90.941 8.70691C91.745 9.44175 92.147 10.3993 92.147 11.5349C92.147 12.4925 91.8566 13.3164 91.276 14.029C90.6953 14.7415 89.869 15.4319 88.797 16.0999L92.1693 20.1304C92.5713 19.2397 92.817 18.3267 92.884 17.4137H95.028C94.961 18.9725 94.5143 20.4644 93.6656 21.9119L96.9933 25.8756H94.09L92.3033 23.7378C90.7846 25.3634 88.9087 26.1651 86.6977 26.1651ZM87.055 24.0941C88.5067 24.0941 89.802 23.4261 90.9633 22.09L86.921 17.2133C85.8713 17.8591 85.0897 18.4826 84.576 19.0838C84.0623 19.6851 83.7944 20.3531 83.7944 21.0879C83.7944 21.9787 84.0847 22.6912 84.6877 23.2479C85.313 23.8046 86.0947 24.0941 87.055 24.0941ZM87.8813 9.55309C87.256 9.55309 86.7423 9.73124 86.3403 10.0875C85.9607 10.4438 85.7597 10.9114 85.7597 11.4904C85.7597 11.7799 85.849 12.1139 86.0277 12.4702C86.2063 12.8265 86.4073 13.1605 86.6307 13.4277C86.854 13.7172 87.1667 14.118 87.591 14.6302C89.2213 13.6949 90.0477 12.7152 90.0477 11.7131C90.0477 11.0673 89.8467 10.5552 89.4223 10.1543C88.998 9.75351 88.4843 9.55309 87.8813 9.55309Z" fill="#F18815"/>
<path d="M51.0092 16.6564C52.9075 15.1644 54.0465 12.6481 54.0465 9.95368C54.0465 7.41512 53.1755 5.32192 51.4112 3.56275C49.6692 1.82584 47.5252 0.93512 45.0239 0.93512H34.5719C33.4999 0.93512 32.6289 1.84811 32.6289 2.96151V25.8085C32.6289 26.0089 32.7852 26.1648 32.9862 26.1648H39.0385C39.2395 26.1648 39.3959 26.0089 39.3959 25.8085V7.32605H44.8452C46.2522 7.32605 47.3018 8.50625 47.3018 10.1541C47.3018 11.0225 46.9892 11.8242 46.3862 12.4254C45.8055 13.0044 45.0462 13.3384 44.2422 13.3384H41.8972C41.7632 13.3384 41.6292 13.4052 41.5622 13.5388C41.4952 13.6502 41.4952 13.806 41.5622 13.9174L49.2672 26.0089C49.3342 26.1203 49.4458 26.1871 49.5798 26.1871H56.1458C56.4361 26.1871 56.5925 25.8753 56.4585 25.6304L50.8082 16.8345L51.0092 16.6564Z" fill="#007751"/>
<path d="M67.0891 13.7392L60.8358 1.13553C60.7688 1.00192 60.6571 0.93512 60.5008 0.93512H53.8008C53.5328 0.93512 53.3541 1.2246 53.4658 1.44728L65.2801 25.0959C65.6151 25.7417 66.3074 26.1648 67.0891 26.1648C67.8484 26.1871 68.5407 25.764 68.8981 25.0959L80.7794 1.44728C80.891 1.20234 80.7124 0.93512 80.4444 0.93512H73.6551C73.5211 0.93512 73.3871 1.02419 73.3201 1.13553L67.0891 13.7392Z" fill="#007751"/>
<path d="M27.3135 1.09119C26.5319 0.779439 25.7726 0.913047 25.0579 1.53655L14.2933 12.8264L3.61798 1.60336C2.88099 0.979851 2.09932 0.779439 1.31766 1.09119C0.513664 1.40294 0 2.13779 0 3.02851V25.8087C0 26.0091 0.156333 26.165 0.357332 26.165H6.38731C6.5883 26.165 6.74464 26.0091 6.74464 25.8087V14.6747L12.9309 21.0434C13.6679 21.7782 14.9409 21.7782 15.6556 21.0434L21.8642 14.6747V25.8087C21.8642 26.0091 22.0206 26.165 22.2216 26.165H28.2515C28.4525 26.165 28.6089 26.0091 28.6089 25.8087V3.02851C28.6089 2.16006 28.0952 1.42521 27.3135 1.09119Z" fill="#007751"/>
</svg>
