<svg width="128" height="36" viewBox="0 0 128 36" fill="none" xmlns="http://www.w3.org/2000/svg">
<path d="M98.0408 20.948C99.9599 19.4393 101.106 16.9114 101.106 14.1851C101.106 11.6318 100.239 9.5233 98.4542 7.73558C96.6978 5.97771 94.54 5.08684 92.039 5.08684H81.5216C80.4472 5.08684 79.5728 6.00606 79.5728 7.13421V30.1746C79.5728 30.3745 79.7339 30.5357 79.9339 30.5357H86.0223C86.2222 30.5357 86.3834 30.3745 86.3834 30.1746V11.5393H91.854C93.2731 11.5393 94.3132 12.7346 94.3266 14.3806C94.3341 15.252 94.0043 16.0698 93.397 16.6816C92.8135 17.2696 92.045 17.5934 91.2317 17.5934H88.8799C88.7426 17.5934 88.6203 17.665 88.5546 17.7844C88.4875 17.9038 88.4904 18.0455 88.5621 18.1619L96.2979 30.3626C96.3636 30.47 96.48 30.5357 96.6068 30.5357H103.2C103.486 30.5357 103.659 30.2178 103.502 29.9776L97.8215 21.1181L98.0408 20.948Z" fill="#006B3F"/>
<path d="M114.208 18.0008L107.927 5.29725C107.867 5.16891 107.737 5.08535 107.596 5.08535H100.854C100.584 5.08535 100.408 5.36738 100.527 5.60913L112.401 29.4613C112.742 30.1164 113.439 30.5312 114.209 30.5357C114.972 30.5476 115.661 30.1417 116.027 29.4613L127.962 5.61062C128.081 5.36887 127.905 5.08535 127.635 5.08535H120.816C120.674 5.08535 120.544 5.16742 120.484 5.29725L114.208 18.0008Z" fill="#006B3F"/>
<path d="M74.1977 5.251C73.4068 4.92718 72.6502 5.0779 71.9354 5.71061L61.1255 17.0801L50.3754 5.77179C49.6442 5.13759 48.8697 4.93016 48.0773 5.24204C47.2581 5.56586 46.7462 6.31945 46.7462 7.20286V30.1775C46.7462 30.376 46.9074 30.5372 47.1073 30.5372H53.1644C53.3643 30.5372 53.5255 30.376 53.5255 30.1775V18.9454L59.7527 25.3665C60.4913 26.1186 61.7642 26.1127 62.4909 25.3725L68.7226 18.9454V30.1775C68.7226 30.376 68.8838 30.5372 69.0837 30.5372H75.1408C75.3407 30.5372 75.5019 30.376 75.5019 30.1775V7.20286C75.5034 6.3284 75.002 5.58078 74.1977 5.251Z" fill="#006B3F"/>
<path d="M32.9892 0.62798L15.8851 17.7232L22.4644 24.3025C22.6032 24.4413 22.6823 24.6308 22.6823 24.8278V29.4732C22.6823 30.0596 22.2062 30.5357 21.6198 30.5357H9.07891L9.07593 33.4873C9.07593 34.6647 10.0295 35.6183 11.2069 35.6183H34.4979C35.6753 35.6183 36.6288 34.6647 36.6288 33.4873V2.13068C36.6229 0.234026 34.3308 -0.712061 32.9892 0.62798Z" fill="url(#paint0_linear_15_3582)"/>
<path d="M9.3012 24.3055L15.8865 17.7232L3.92611 5.76431C2.47714 4.31533 0 5.342 0 7.39086V28.2361C0 29.506 1.02965 30.5357 2.29956 30.5357H9.07736L9.08184 24.8293C9.08333 24.6338 9.16093 24.4443 9.3012 24.3055Z" fill="url(#paint1_linear_15_3582)"/>
<path d="M22.6822 29.4732V24.8278C22.6822 24.6308 22.6046 24.4413 22.4644 24.3025L15.885 17.7232L9.29974 24.3055C9.16096 24.4443 9.08187 24.6338 9.08187 24.8308L9.07739 30.5372H21.6183C22.2062 30.5357 22.6822 30.0596 22.6822 29.4732Z" fill="url(#paint2_linear_15_3582)"/>
<defs>
<linearGradient id="paint0_linear_15_3582" x1="22.8519" y1="0.279868" x2="22.8519" y2="35.512" gradientUnits="userSpaceOnUse">
<stop stop-color="#FFB81A"/>
<stop offset="1" stop-color="#FF8B22"/>
</linearGradient>
<linearGradient id="paint1_linear_15_3582" x1="7.94286" y1="5.25303" x2="7.94286" y2="30.3398" gradientUnits="userSpaceOnUse">
<stop stop-color="#82EB5C"/>
<stop offset="1" stop-color="#00D38D"/>
</linearGradient>
<linearGradient id="paint2_linear_15_3582" x1="15.8804" y1="29.9117" x2="15.8804" y2="17.7794" gradientUnits="userSpaceOnUse">
<stop offset="0.00158253" stop-color="#079D56"/>
<stop offset="1" stop-color="#006B3F"/>
</linearGradient>
</defs>
</svg>
