<svg width="152" height="48" viewBox="0 0 152 48" fill="none" xmlns="http://www.w3.org/2000/svg">
<rect x="1" y="1.47418" width="150" height="45.5052" rx="7" stroke="#006B3F" stroke-width="2"/>
<path d="M99.0611 26.3199C100.354 25.3138 101.126 23.6281 101.126 21.81C101.126 20.1073 100.542 18.7012 99.3396 17.509C98.1561 16.3368 96.7022 15.7427 95.017 15.7427H87.9302C87.2063 15.7427 86.6171 16.3557 86.6171 17.108V32.4728C86.6171 32.6061 86.7257 32.7136 86.8604 32.7136H90.9628C91.0976 32.7136 91.2062 32.6061 91.2062 32.4728V20.0456H94.8923C95.8485 20.0456 96.5494 20.8427 96.5584 21.9403C96.5634 22.5215 96.3412 23.0668 95.932 23.4748C95.5388 23.8669 95.021 24.0829 94.473 24.0829H92.8883C92.7958 24.0829 92.7134 24.1306 92.6691 24.2102C92.6239 24.2898 92.6259 24.3844 92.6742 24.462L97.8867 32.5982C97.9309 32.6698 98.0093 32.7136 98.0948 32.7136H102.537C102.73 32.7136 102.847 32.5017 102.741 32.3414L98.9133 26.4334L99.0611 26.3199Z" fill="#006B3F"/>
<path d="M109.955 24.3545L105.722 15.883C105.682 15.7974 105.595 15.7417 105.499 15.7417H100.956C100.774 15.7417 100.656 15.9298 100.736 16.091L108.737 31.9971C108.967 32.434 109.437 32.7106 109.956 32.7136C110.469 32.7216 110.934 32.4509 111.18 31.9971L119.222 16.092C119.303 15.9308 119.184 15.7417 119.002 15.7417H114.407C114.311 15.7417 114.224 15.7964 114.184 15.883L109.955 24.3545Z" fill="#006B3F"/>
<path d="M82.9952 15.8521C82.4623 15.6362 81.9525 15.7367 81.4709 16.1586L74.1871 23.7405L66.9435 16.1994C66.4508 15.7765 65.9289 15.6382 65.395 15.8462C64.843 16.0621 64.4981 16.5647 64.4981 17.1538V32.4748C64.4981 32.6071 64.6067 32.7146 64.7414 32.7146H68.8227C68.9575 32.7146 69.0661 32.6071 69.0661 32.4748V24.9844L73.262 29.2665C73.7597 29.768 74.6174 29.7641 75.1071 29.2705L79.306 24.9844V32.4748C79.306 32.6071 79.4146 32.7146 79.5494 32.7146H83.6307C83.7654 32.7146 83.874 32.6071 83.874 32.4748V17.1538C83.875 16.5706 83.5372 16.0721 82.9952 15.8521Z" fill="#006B3F"/>
<path d="M55.2285 12.7692L43.7036 24.1694L48.1368 28.557C48.2303 28.6495 48.2836 28.7759 48.2836 28.9073V32.0051C48.2836 32.3962 47.9628 32.7136 47.5677 32.7136H39.1175L39.1155 34.682C39.1155 35.4672 39.758 36.103 40.5513 36.103H56.2451C57.0384 36.103 57.681 35.4672 57.681 34.682V13.7713C57.6769 12.5065 56.1325 11.8756 55.2285 12.7692Z" fill="url(#paint0_linear_15_4567)"/>
<path d="M39.2673 28.5589L43.7045 24.1694L35.6455 16.1945C34.6691 15.2282 33 15.9128 33 17.2791V31.1801C33 32.027 33.6938 32.7136 34.5495 32.7136H39.1164L39.1194 28.9082C39.1205 28.7779 39.1727 28.6515 39.2673 28.5589Z" fill="url(#paint1_linear_15_4567)"/>
<path d="M48.2836 32.0051V28.9072C48.2836 28.7759 48.2313 28.6495 48.1368 28.557L43.7035 24.1694L39.2663 28.559C39.1728 28.6515 39.1195 28.7779 39.1195 28.9092L39.1165 32.7146H47.5666C47.9628 32.7136 48.2836 32.3962 48.2836 32.0051Z" fill="url(#paint2_linear_15_4567)"/>
<defs>
<linearGradient id="paint0_linear_15_4567" x1="48.3979" y1="12.5371" x2="48.3979" y2="36.0321" gradientUnits="userSpaceOnUse">
<stop stop-color="#FFB81A"/>
<stop offset="1" stop-color="#FF8B22"/>
</linearGradient>
<linearGradient id="paint1_linear_15_4567" x1="38.352" y1="15.8535" x2="38.352" y2="32.583" gradientUnits="userSpaceOnUse">
<stop stop-color="#82EB5C"/>
<stop offset="1" stop-color="#00D38D"/>
</linearGradient>
<linearGradient id="paint2_linear_15_4567" x1="43.7004" y1="32.2975" x2="43.7004" y2="24.2069" gradientUnits="userSpaceOnUse">
<stop offset="0.00158253" stop-color="#079D56"/>
<stop offset="1" stop-color="#006B3F"/>
</linearGradient>
</defs>
</svg>
