<svg width="152" height="48" viewBox="0 0 152 48" fill="none" xmlns="http://www.w3.org/2000/svg">
<rect x="1" y="1.47418" width="150" height="45.5052" rx="7" stroke="#006B3F" stroke-width="2"/>
<path d="M57.6952 29.8674C55.8127 29.3561 45.1389 25.881 48.3962 12.9342C48.51 12.4836 49.0091 12.2323 49.4469 12.4056C52.2752 13.5495 61.2327 18.1424 58.0542 29.6594C58.0105 29.8154 57.8529 29.9107 57.6952 29.8674Z" fill="url(#paint0_linear_15_4548)"/>
<path d="M58.098 33.9492C58.3169 31.2801 58.781 15.8635 40.183 13.957C39.5438 13.8877 38.9746 14.4076 39.0009 15.0576C39.1672 19.2432 40.9973 32.97 57.669 34.3132C57.8879 34.3305 58.0805 34.1658 58.098 33.9492Z" fill="url(#paint1_linear_15_4548)"/>
<path d="M94.8739 29.9111C96.0034 29.0359 96.6776 27.5627 96.6776 25.9768C96.6776 24.4949 96.1698 23.2644 95.119 22.2245C94.0858 21.2019 92.8162 20.6819 91.3451 20.6819H85.1633C84.5329 20.6819 84.0162 21.2192 84.0162 21.8692V35.2753C84.0162 35.3879 84.1126 35.4833 84.2264 35.4833H87.8077C87.9215 35.4833 88.0178 35.3879 88.0178 35.2753V24.4429H91.2313C92.0631 24.4429 92.6761 25.1362 92.6848 26.0981C92.6848 26.6094 92.4922 27.0774 92.1419 27.4327C91.8005 27.7706 91.3451 27.9613 90.8723 27.9613H89.4888C89.41 27.9613 89.34 28.0046 89.2962 28.0739C89.2524 28.1433 89.2612 28.2299 89.2962 28.2906L93.8406 35.3879C93.8757 35.4486 93.9457 35.4919 94.0245 35.4919H97.9035C98.0699 35.4919 98.1749 35.3099 98.0786 35.1713L94.7425 30.0151L94.8739 29.9111Z" fill="#008059"/>
<path d="M104.383 28.1953L100.688 20.8033C100.653 20.7253 100.574 20.6819 100.495 20.6819H96.5287C96.3711 20.6819 96.266 20.8466 96.3361 20.9853L103.315 34.8593C103.516 35.2406 103.928 35.4833 104.374 35.4833C104.821 35.4919 105.224 35.258 105.442 34.8593L112.465 20.9939C112.535 20.8553 112.43 20.6906 112.272 20.6906H108.262C108.174 20.6906 108.104 20.7426 108.069 20.8119L104.383 28.1953Z" fill="#008059"/>
<path d="M80.864 20.7856C80.3999 20.595 79.9534 20.6816 79.5331 21.0543L73.1761 27.6663L66.8542 21.0889C66.4251 20.7163 65.9698 20.595 65.5057 20.777C65.0242 20.9676 64.7264 21.4009 64.7264 21.9209V35.2837C64.7264 35.3963 64.8228 35.4916 64.9366 35.4916H68.5003C68.6142 35.4916 68.7105 35.3963 68.7105 35.2837V28.7496L72.3706 32.4846C72.8084 32.9179 73.5526 32.9179 73.9817 32.4846L77.6418 28.7496V35.2837C77.6418 35.3963 77.7381 35.4916 77.8519 35.4916H81.4157C81.5295 35.4916 81.6258 35.3963 81.6258 35.2837V21.9209C81.6258 21.4096 81.3369 20.9763 80.864 20.7856Z" fill="#008059"/>
<path d="M57.993 29.781C57.4501 25.4481 55.3224 19.1133 47.8796 15.855C46.7939 26.4187 55.9703 29.3997 57.704 29.8677C57.8091 29.8937 57.9229 29.859 57.993 29.781Z" fill="url(#paint2_linear_15_4548)"/>
<path d="M41.5489 32.571C43.9569 34.6075 49.9286 38.3772 57.9054 34.2522C58.0018 34.2002 58.0193 34.0789 57.9492 34.0009C56.986 32.9263 50.883 26.7216 41.8116 30.7425C41.0849 31.0718 40.936 32.0424 41.5489 32.571Z" fill="url(#paint3_linear_15_4548)"/>
<path d="M64.7701 12.9257H65.602V17.7352H64.7701V12.9257Z" fill="#F68B28"/>
<path d="M70.9432 12.9257V17.7352H70.1026L67.756 14.3382H67.7385V17.7352H66.9154V12.9257H67.7297L70.1026 16.3747H70.1202V12.9257H70.9432Z" fill="#F68B28"/>
<path d="M73.6927 17.7874C73.071 17.7874 72.4406 17.5534 71.9327 17.0335L72.4494 16.4009C72.7996 16.8255 73.2812 17.0335 73.6927 17.0335C74.2269 17.0335 74.4983 16.7995 74.4983 16.4442C74.4983 16.0282 74.1743 15.8896 73.5614 15.6816C72.8259 15.4216 72.0991 15.101 72.0991 14.2171C72.0991 13.4631 72.7908 12.8738 73.6314 12.8738C74.2093 12.8738 74.7522 13.0818 75.2426 13.4631L74.7522 14.1044C74.3582 13.7751 73.9642 13.6104 73.6314 13.6104C73.2549 13.6104 72.9572 13.8184 72.9572 14.1737C72.9485 14.5204 73.2812 14.6503 73.8678 14.867C74.6997 15.1876 75.3739 15.4129 75.3739 16.3402C75.3651 17.3454 74.4633 17.7874 73.6927 17.7874Z" fill="#F68B28"/>
<path d="M77.2915 13.6623H75.9167V12.9257H79.5155V13.6623H78.1233V17.7352H77.3002V13.6623H77.2915Z" fill="#F68B28"/>
<path d="M80.4525 12.9257H81.2843V17.7352H80.4525V12.9257Z" fill="#F68B28"/>
<path d="M83.6047 13.6623H82.23V12.9257H85.8288V13.6623H84.4365V17.7352H83.6135V13.6623H83.6047Z" fill="#F68B28"/>
<path d="M88.5957 17.7872C87.4486 17.7872 86.6693 17.0506 86.6693 15.7594V12.9257H87.4924V15.6987C87.4924 16.4613 87.9039 17.016 88.5957 17.016C89.2436 17.016 89.7077 16.5307 89.7077 15.6987V12.9257H90.5308V15.7594C90.5308 17.0073 89.804 17.7872 88.5957 17.7872Z" fill="#F68B28"/>
<path d="M92.7548 13.6623H91.3801V12.9257H94.9789V13.6623H93.5867V17.7352H92.7636V13.6623H92.7548Z" fill="#F68B28"/>
<path d="M95.3204 15.3263C95.3204 13.9137 96.3186 12.8738 97.7809 12.8738C99.1819 12.8738 100.233 13.8618 100.233 15.3263C100.233 16.7908 99.1906 17.7874 97.7809 17.7874C96.3186 17.7874 95.3204 16.7475 95.3204 15.3263ZM97.7809 17.0248C98.6828 17.0248 99.3745 16.3142 99.3745 15.3263C99.3745 14.3384 98.6828 13.6364 97.7809 13.6364C96.8352 13.6364 96.1785 14.3904 96.1785 15.3263C96.1785 16.2709 96.8265 17.0248 97.7809 17.0248Z" fill="#F68B28"/>
<defs>
<linearGradient id="paint0_linear_15_4548" x1="49.7387" y1="24.7027" x2="56.677" y2="17.6921" gradientUnits="userSpaceOnUse">
<stop stop-color="#A3CF62"/>
<stop offset="1" stop-color="#57BD84"/>
</linearGradient>
<linearGradient id="paint1_linear_15_4548" x1="44.2878" y1="28.5465" x2="53.2488" y2="19.4921" gradientUnits="userSpaceOnUse">
<stop stop-color="#FDB913"/>
<stop offset="1" stop-color="#F68B28"/>
</linearGradient>
<linearGradient id="paint2_linear_15_4548" x1="50.3886" y1="25.3421" x2="54.7305" y2="20.955" gradientUnits="userSpaceOnUse">
<stop offset="0.00130426" stop-color="#009C73"/>
<stop offset="1" stop-color="#008059"/>
</linearGradient>
<linearGradient id="paint3_linear_15_4548" x1="45.6478" y1="36.626" x2="53.0625" y2="29.1341" gradientUnits="userSpaceOnUse">
<stop offset="0.00144676" stop-color="#FDB913"/>
<stop offset="1" stop-color="#FFE06A"/>
</linearGradient>
</defs>
</svg>
